<?xml version="1.0" encoding="utf-8"?>
<!-- Generator: Adobe Illustrator 16.0.0, SVG Export Plug-In . SVG Version: 6.00 Build 0)  -->
<!DOCTYPE svg PUBLIC "-//W3C//DTD SVG 1.1//EN" "http://www.w3.org/Graphics/SVG/1.1/DTD/svg11.dtd">
<svg version="1.1" id="Layer_1" xmlns="http://www.w3.org/2000/svg" xmlns:xlink="http://www.w3.org/1999/xlink" x="0px" y="0px"
	 width="418.238px" height="418.11px" viewBox="0 0 418.238 418.11" enable-background="new 0 0 418.238 418.11"
	 xml:space="preserve">
<g id="Background" display="none">
	<rect y="-0.445" display="inline" fill="#F9F9F9" width="549" height="550"/>
</g>
<path id="Stool" display="none" fill="#181921" d="M327.848,416.013l-34.044-6.422c-6.219,0.207-12.965,0.325-20.257,0.325
	c-6.93,0-13.117-0.113-18.67-0.3l-33.892,6.395c-3.683,0.698-7.403,0.701-11.047,0.018c-1.434-0.273-2.824-0.651-4.176-1.106v18.971
	c0,3.432,2.786,6.217,6.214,6.217h49.518l3.389,38.812c-49.482,2.31-63.582,23.021-64.424,24.759l-0.869,1.463v9.304
	c-6.78,2.177-11.691,8.525-11.691,16.028c0,9.296,7.538,16.829,16.833,16.829c9.296,0,16.835-7.533,16.835-16.829
	c0-6.677-3.899-12.423-9.532-15.148v-6.352c3.36-3.724,16.53-15.864,53.933-17.6l2.027,23.254
	c-6.522,2.321-11.197,8.528-11.197,15.846c0,9.296,7.537,16.829,16.834,16.829s16.83-7.533,16.83-16.829
	c0-6.509-3.7-12.146-9.108-14.947l2.108-24.162c21.925,1,35.568,5.654,43.721,10.016c4.601,2.46,7.479,4.838,9.159,6.491
	c0.42,0.409,0.767,0.778,1.041,1.089v6.076c-5.959,2.593-10.123,8.526-10.123,15.436c0,9.296,7.533,16.828,16.832,16.828
	c9.296,0,16.831-7.532,16.831-16.828c0-7.275-4.628-13.459-11.095-15.809v-9.52l-0.864-1.469
	c-0.848-1.735-14.944-22.442-64.418-24.758l3.382-38.811h58.642c3.429,0,6.209-2.786,6.209-6.217v-23.096
	c0-0.442-0.052-0.872-0.134-1.288c-3.844,3.243-8.536,5.536-13.752,6.521C335.249,416.714,331.53,416.71,327.848,416.013z"/>
<g id="Pants" display="none">
	<polygon display="inline" fill="#DE9D37" stroke="#000000" stroke-miterlimit="10" points="181.917,384.881 167.857,381.419 
		159.331,375.007 153.867,364.863 153.476,353.606 161.174,339.853 168.604,334.954 179.296,332.601 195.344,334.979 
		212.269,338.06 249.902,344.908 262.76,347.248 266.581,350.805 280.726,348.232 308.179,344.419 335.988,338.177 362.429,333.366 
		376.584,333.637 384.535,337.336 391.641,344.419 395.5,353.623 395.5,365.555 390.662,373.78 380.435,381.795 359.961,386.32 
		362.228,391.589 358.026,401.36 352.316,407.196 345.218,411.003 333.911,412.529 311.845,409.507 291.028,404.887 
		279.512,403.555 275.429,401.694 258.168,404.833 240.744,408.002 217.903,412.158 204.092,411.148 192.087,402.962 
		187.808,395.635 186.188,385.055 182.845,385.055 181.944,385.042 	"/>
	<polygon display="inline" fill="#DEB887" stroke="#000000" stroke-miterlimit="10" points="181.917,384.881 167.857,381.419 
		159.331,375.007 153.867,364.863 153.476,353.606 161.174,339.853 168.604,334.954 179.296,332.601 195.344,334.979 
		212.269,338.06 249.902,344.908 262.76,347.248 266.581,350.805 280.726,348.232 308.179,344.419 335.988,338.177 362.429,333.366 
		376.584,333.637 384.535,337.336 391.641,344.419 395.5,353.623 395.5,365.555 390.662,373.78 380.435,381.795 359.961,386.32 
		362.228,391.589 358.026,401.36 352.316,407.196 345.218,411.003 333.911,412.529 311.845,409.507 291.028,404.887 
		279.512,403.555 275.429,401.694 258.168,404.833 240.744,408.002 217.903,412.158 204.092,411.148 192.087,402.962 
		187.808,395.635 186.188,385.055 182.845,385.055 181.944,385.042 	"/>
	<polygon fill="#EDE9D0" stroke="#000000" stroke-miterlimit="10" points="69.072,384.881 55.013,381.419 46.486,375.007 
		41.022,364.863 40.631,353.606 48.329,339.853 55.758,334.954 66.451,332.601 82.499,334.979 99.424,338.06 137.057,344.908 
		149.915,347.248 153.736,350.805 167.881,348.232 195.334,344.419 223.144,338.177 249.584,333.366 263.739,333.637 
		271.69,337.336 278.718,344.419 282.5,353.623 282.5,365.555 277.739,373.78 267.551,381.795 247.097,386.32 249.373,391.589 
		245.177,401.36 239.47,407.196 232.372,411.003 221.065,412.529 199,409.507 178.184,404.887 166.667,403.555 162.584,401.694 
		145.323,404.833 127.899,408.002 105.058,412.158 91.247,411.148 79.242,402.962 74.963,395.635 73.343,385.055 70,385.055 
		69.1,385.042 	"/>
	<polygon display="inline" fill="#C17F60" stroke="#000000" stroke-miterlimit="10" points="181.917,384.881 167.857,381.419 
		159.331,375.007 153.867,364.863 153.476,353.606 161.174,339.853 168.604,334.954 179.296,332.601 195.344,334.979 
		212.269,338.06 249.902,344.908 262.76,347.248 266.581,350.805 280.726,348.232 308.179,344.419 335.988,338.177 362.429,333.366 
		376.584,333.637 384.535,337.336 391.641,344.419 395.5,353.623 395.5,365.555 390.662,373.78 380.435,381.795 359.961,386.32 
		362.228,391.589 358.026,401.36 352.316,407.196 345.218,411.003 333.911,412.529 311.845,409.507 291.028,404.887 
		279.512,403.555 275.429,401.694 258.168,404.833 240.744,408.002 217.903,412.158 204.092,411.148 192.087,402.962 
		187.808,395.635 186.188,385.055 182.845,385.055 181.944,385.042 	"/>
	<polygon fill="#9E664E" stroke="#000000" stroke-miterlimit="10" points="69.072,384.881 55.013,381.419 46.486,375.007 
		41.022,364.863 40.631,353.606 48.329,339.853 55.758,334.954 66.451,332.601 82.499,334.979 99.424,338.06 137.057,344.908 
		149.915,347.248 153.736,350.805 167.881,348.232 195.334,344.419 223.144,338.177 249.584,333.366 263.739,333.637 
		271.69,337.336 278.718,344.419 282.5,353.623 282.5,365.555 277.739,373.78 267.551,381.795 247.097,386.32 249.373,391.589 
		245.177,401.36 239.47,407.196 232.372,411.003 221.065,412.529 199,409.507 178.184,404.887 166.667,403.555 162.584,401.694 
		145.323,404.833 127.899,408.002 105.058,412.158 91.247,411.148 79.242,402.962 74.963,395.635 73.343,385.055 70,385.055 
		69.1,385.042 	"/>
</g>
<g id="Shirt" display="none">
	<path fill="#C376BE" d="M24.438,307.153l15.611-11.376l20.333-22.122l18.089-24.257l19.037-33.443l13.484-11.156
		c0-1.162,8.798-3.243,8.798-3.243H203l7.981,1.724l8.186,6.609l7.332,7.34l8.001,14.994l9.359,13.676l9.329,14.476l13.612,18.346
		l16.223,18.336l11.14,7.343l16.354,8.06l9.438,9.997l0.894,9.267l-7.836,9.955l-9.846,3.712l-27.333-11.167l-14.071-11.945
		l-19.554-19.806l-11.69-14.838l-10.436-13.077L221,295.888v40.667l-49.423,11.004l-23.077,2.662l-10.167-6.5l-35-7.499
		l-0.273-63.793l-8.021,11.86L79.5,306.222l-19,18.334l-21.294,12.925l-17.015,6.747l-12.699-2.994l-6.994-11.142l3.034-12.047
		L24.438,307.153"/>
	<path fill="#A29BFF" d="M24.438,307.153l15.611-11.376l20.333-22.122l18.089-24.257l19.037-33.443l13.484-11.156
		c0-1.162,8.798-3.243,8.798-3.243H203l7.981,1.724l8.186,6.609l7.332,7.34l8.001,14.994l9.359,13.676l9.329,14.476l13.612,18.346
		l16.223,18.336l11.14,7.343l16.354,8.06l9.438,9.997l0.894,9.267l-7.836,9.955l-9.846,3.712l-27.333-11.167l-14.071-11.945
		l-19.554-19.806l-11.69-14.838l-10.436-13.077L221,295.888v40.667l-49.423,11.004l-23.077,2.662l-10.167-6.5l-35-7.499
		l-0.273-63.793l-8.021,11.86L79.5,306.222l-19,18.334l-21.294,12.925l-17.015,6.747l-12.699-2.994l-6.994-11.142l3.034-12.047
		L24.438,307.153"/>
	<path display="inline" fill="#FF7E5C" d="M137.176,307.153l15.611-11.376l20.332-22.122l18.09-24.257l19.037-33.443l13.484-11.156
		c0-1.162,8.798-3.243,8.798-3.243h83.209l7.981,1.724l8.186,6.609l7.332,7.34l8.001,14.994l9.359,13.676l9.329,14.476
		l13.612,18.346l16.223,18.336l11.14,7.343l16.354,8.06l9.438,9.997l0.894,9.267l-7.836,9.955l-9.846,3.712l-27.333-11.167
		l-14.071-11.945l-19.554-19.806l-11.69-14.838l-10.304-13.077L334,295.888v40.667l-49.555,11.004l-23.143,2.662l-10.199-6.5
		l-35.017-7.499l-0.281-63.793l-8.025,11.86l-15.541,21.933l-19.001,18.334l-21.294,12.925l-17.015,6.747l-12.699-2.994
		l-6.994-11.142l3.034-12.047L137.176,307.153"/>
	<path display="inline" fill="#FF8749" d="M137.176,307.153l15.611-11.376l20.332-22.122l18.09-24.257l19.037-33.443l13.484-11.156
		c0-1.162,8.798-3.243,8.798-3.243h83.209l7.981,1.724l8.186,6.609l7.332,7.34l8.001,14.994l9.359,13.676l9.329,14.476
		l13.612,18.346l16.223,18.336l11.14,7.343l16.354,8.06l9.438,9.997l0.894,9.267l-7.836,9.955l-9.846,3.712l-27.333-11.167
		l-14.071-11.945l-19.554-19.806l-11.69-14.838l-10.304-13.077L334,295.888v40.667l-49.555,11.004l-23.143,2.662l-10.199-6.5
		l-35.017-7.499l-0.281-63.793l-8.025,11.86l-15.541,21.933l-19.001,18.334l-21.294,12.925l-17.015,6.747l-12.699-2.994
		l-6.994-11.142l3.034-12.047L137.176,307.153"/>
	<path display="inline" fill="#FF8650" d="M137.176,307.153l15.611-11.376l20.332-22.122l18.09-24.257l19.037-33.443l13.484-11.156
		c0-1.162,8.798-3.243,8.798-3.243h83.209l7.981,1.724l8.186,6.609l7.332,7.34l8.001,14.994l9.359,13.676l9.329,14.476
		l13.612,18.346l16.223,18.336l11.14,7.343l16.354,8.06l9.438,9.997l0.894,9.267l-7.836,9.955l-9.846,3.712l-27.333-11.167
		l-14.071-11.945l-19.554-19.806l-11.69-14.838l-10.304-13.077L334,295.888v40.667l-49.555,11.004l-23.143,2.662l-10.199-6.5
		l-35.017-7.499l-0.281-63.793l-8.025,11.86l-15.541,21.933l-19.001,18.334l-21.294,12.925l-17.015,6.747l-12.699-2.994
		l-6.994-11.142l3.034-12.047L137.176,307.153"/>
</g>
<g id="Ties">
	<g id="tie1_1_" display="none">
		<polygon display="inline" fill="#289FAA" points="141.027,329.738 161.586,213.805 182.145,329.738 161.584,350.805 		"/>
	</g>
	<g id="tie2" display="none">
		<polygon display="inline" fill="#BDBEC9" points="141.027,329.738 161.586,213.805 182.145,329.738 161.584,350.805 		"/>
	</g>
	<g id="tie3" display="none">
		<polygon display="inline" fill="#A8AABC" points="141.027,329.738 161.586,213.805 182.145,329.738 161.584,350.805 		"/>
	</g>
	<g id="tie4" display="none">
		<polygon display="inline" fill="#7AC3EB" points="141.027,329.738 161.586,213.805 182.145,329.738 161.584,350.805 		"/>
	</g>
	<g id="tie5" display="none">
		<polygon display="inline" fill="#C376BE" points="141.027,329.738 161.586,213.805 182.145,329.738 161.584,350.805 		"/>
	</g>
	<g id="tie6" display="none">
		<polygon display="inline" fill="#82C1E2" points="141.027,329.738 161.586,213.805 182.145,329.738 161.584,350.805 		"/>
	</g>
	<g id="tie7" display="none">
		<polygon display="inline" fill="#BDBEC9" points="141.027,329.738 161.586,213.805 182.145,329.738 161.584,350.805 		"/>
	</g>
	<g id="tie7_1_" display="none">
		<polygon display="inline" fill="#51A9FF" points="141.027,329.738 161.586,213.805 182.145,329.738 161.584,350.805 		"/>
	</g>
	<g id="tie7_2_" display="none">
		<polygon display="inline" fill="#E56680" points="141.027,329.738 161.586,213.805 182.145,329.738 161.584,350.805 		"/>
	</g>
</g>
<g id="Beads" display="none">
	<polygon display="inline" fill="#FF9933" points="249.078,65.138 298.872,63.93 301,67.055 301,71.555 295.16,75.555 
		260.994,75.555 250.994,75.555 247.827,69.055 	"/>
	<polygon fill="#E56680" points="249.078,65.138 298.872,63.93 301,67.055 301,71.555 295.16,75.555 260.994,75.555 250.994,75.555 
		247.827,69.055 	"/>
	<polygon fill="#EDE9D0" points="249.078,65.138 298.872,63.93 301,67.055 301,71.555 295.16,75.555 260.994,75.555 250.994,75.555 
		247.827,69.055 	"/>
	<polygon fill="#0EC9E2" points="249.078,65.138 298.872,63.93 301,67.055 301,71.555 295.16,75.555 260.994,75.555 250.994,75.555 
		247.827,69.055 	"/>
</g>
<g>
	<g id="tie7_4_">
		<polygon fill="#006A97" points="188.471,331.133 209.029,215.2 229.588,331.133 209.027,352.2 		"/>
	</g>
	<g id="tie7_6_">
		<polygon fill="#009F9F" points="188.471,331.133 209.029,215.2 229.588,331.133 209.027,352.2 		"/>
	</g>
	<g id="tie7_8_">
		<polygon fill="#08BAB5" points="188.471,331.133 209.029,215.2 229.588,331.133 209.027,352.2 		"/>
	</g>
	<g>
		<path fill="none" stroke="#191A22" stroke-width="5" stroke-miterlimit="10" d="M356.851,313.387
			c-10.772-3.645-21.521-11.168-31.485-21.092c-14.984-14.836-27.812-34.633-37.598-50.98c-4.926-8.203-9.074-15.482-12.85-21.338
			c-1.917-2.961-3.656-5.537-5.99-8.188c-1.199-1.334-2.521-2.727-4.739-4.305c-1.548-1.033-3.767-2.42-7.046-3.189
			c-1.922-0.741-4.014-1.16-6.215-1.16h-83.602c-2.213,0-4.32,0.424-6.258,1.173c-1.732,0.424-3.202,1.006-4.363,1.585
			c-3.971,2.111-5.62,4.023-7.243,5.728c-2.837,3.205-4.856,6.326-7.229,10.066c-7.984,12.789-18.702,32.76-32.732,51.332
			c-13.912,18.613-30.991,34.709-48.112,40.367c-9.013,3.076-13.729,12.617-10.531,21.309c2.514,6.84,9.194,11.111,16.321,11.111
			c1.92,0,3.866-0.305,5.78-0.957c17.719-6.094,32.369-17.031,44.764-29.305c13.212-13.162,24.017-28.057,32.874-41.721v62.053
			l49.209,8.949l-11.242-13.693l11.841-84.119c2.807,1.012,5.759,1.541,8.714,1.539h0.004c0,0,0.008,0,0.014,0
			c2.949,0,5.896-0.529,8.697-1.543l11.848,84.123l-11.248,13.693l49.219-8.949V273.87c3.965,6.102,8.311,12.441,13.048,18.729
			c15.979,20.992,36.388,42.422,64.579,52.252c1.915,0.652,3.865,0.965,5.785,0.965c7.127,0,13.799-4.275,16.316-11.117
			C370.582,326.006,365.862,316.467,356.851,313.387z M220.836,238.202c-3.391,2.727-7.542,4.088-11.715,4.094
			c-4.169-0.006-8.314-1.367-11.699-4.086l-0.633-0.957l4.113-15.648h8.223h8.223l4.111,15.648L220.836,238.202z"/>
		<path fill="none" stroke="#191A22" stroke-width="5" stroke-miterlimit="10" d="M141.874,358.749l55.576-10.105l-78.032-14.199
			c-14.525-2.637-28.512,6.57-31.25,20.568c-2.74,13.992,6.808,27.484,21.329,30.129l7.139,1.297
			c0.317-5.365,2.106-10.578,5.335-15.131C126.643,364.702,133.712,360.239,141.874,358.749z"/>
		<path fill="none" stroke="#191A22" stroke-width="5" stroke-miterlimit="10" d="M265.661,413.553
			c14.524,2.643,28.514-6.572,31.247-20.568c0.097-0.498,0.144-0.986,0.211-1.48l-76.328,13.881L265.661,413.553z"/>
		<path fill="none" stroke="#191A22" stroke-width="5" stroke-miterlimit="10" d="M121.348,392.985
			c2.737,13.996,16.727,23.211,31.246,20.568l156.169-28.408c14.522-2.646,24.065-16.135,21.327-30.127
			c-2.742-14-16.727-23.209-31.251-20.57l-156.163,28.414C128.155,365.499,118.606,378.995,121.348,392.985z"/>
	</g>
	<path fill="#37BF88" d="M126.115,163.77c-9.468,0-17.143-6.855-17.143-15.312v-24.5c0.005-7.483,6.065-13.869,14.331-15.097
		c0.927-0.149,1.868-0.221,2.812-0.214h3.428c1.893,0,3.429,1.371,3.429,3.063v48.999c0,1.691-1.536,3.062-3.429,3.062H126.115z
		 M132.512,102.521h8.096c4.473,0,8.096,2.743,8.096,6.125v55.123c0,3.382-3.623,6.125-8.096,6.125h-8.096
		c-2.235,0-4.049-1.37-4.049-3.064v-61.246C128.463,103.894,130.276,102.521,132.512,102.521z M206.273,7.984
		c-40.601,1.446-72.159,32.593-72.159,69.174v20.829c0,1.774-1.601,3.214-3.575,3.214l0,0c-1.974,0-3.574-1.44-3.574-3.214v-20.54
		c0-40.759,37.063-75.893,82.203-75.893c45.4,0,82.203,33.1,82.203,73.931v22.501c0,1.774-1.6,3.214-3.573,3.214l0,0
		c-1.974,0-3.574-1.44-3.574-3.214V75.486c0.031-37.281-33.548-67.524-74.999-67.553C208.24,7.933,207.257,7.949,206.273,7.984z
		 M290.604,167.301c0,1.695-1.813,3.065-4.048,3.065h-8.098c-4.471,0-8.096-2.744-8.096-6.127v-55.122
		c0-3.383,3.625-6.125,8.096-6.125h8.098c2.234,0,4.048,1.372,4.048,3.062V167.301z M309.266,148.929
		c0,8.456-7.674,15.311-17.142,15.311h-3.429c-1.893,0-3.428-1.37-3.428-3.061V112.18c0-1.692,1.535-3.063,3.428-3.063h3.429
		c0.967,0.002,1.931,0.084,2.88,0.245c8.226,1.253,14.247,7.614,14.262,15.066V148.929z"/>
	<path fill="none" stroke="#191A22" stroke-miterlimit="10" d="M203.132,125.243c0,0-9.495,13.938-20.262-0.087"/>
	<path fill="none" stroke="#191A22" stroke-miterlimit="10" d="M215.17,125.378c0,0,9.189,14.147,20.266,0.368"/>
	<path fill="#191A22" d="M262.797,108.896c-2.186-4.082-5.554-19.38-10.049-25.91c-4.894-7.102-12.176-10.607-17.713-11.48
		c2.623-4.597,4.172-9.893,4.235-15.57c0.199-17.719-13.869-32.242-31.424-32.438c-17.549-0.197-31.945,14.006-32.145,31.725
		c-0.083,7.44,2.378,14.281,6.528,19.762c-7.942,3.838-33.705,18.672-31.453,48.726c2.657,35.473,8.703,41.652,6.771,50.19
		s-2.545,14.028,2.528,22.037c5.077,7.999,15.933,20.959,14.048,25.829c-1.892,4.859-1.455,20.764,3.973,26.936
		c5.432,6.18,13.84,19.1,15.004,24.619c1.16,5.514,5.275,19.768,9.519,23.48c4.236,3.721,2.256,17.141,4.669,19.609
		c2.411,2.473,13.483-9.805,13.769-28.721c0.154-10.676,16.709-18.756,16.86-32.197c0.151-13.451-1.638-17.754,7.024-26.207
		c8.647-8.463,9.396-11.51,6.428-23.77c-2.975-12.257-0.197-13.709,6.367-27.436c6.566-13.716,9.55-34.119,9.55-34.119
		S269.372,121.193,262.797,108.896z M230.172,67.146c4.737,0.053,4.655,7.387-0.083,7.333
		C225.36,74.426,225.442,67.093,230.172,67.146z M219.328,68.857c4.73,0.053,4.648,7.383-0.082,7.33
		C214.52,76.135,214.602,68.805,219.328,68.857z M208.496,69.348c4.734,0.053,4.651,7.386-0.082,7.333
		C203.684,76.627,203.763,69.294,208.496,69.348z M197.668,69.226c4.729,0.053,4.646,7.386-0.082,7.333
		C192.857,76.506,192.939,69.173,197.668,69.226z M186.855,67.882c4.729,0.053,4.646,7.387-0.082,7.333
		C182.044,75.162,182.127,67.829,186.855,67.882z M239.222,174.034c1.806-12.645,1.102-28.218-12.949-29.401
		c0,0-10.948,0.031-12.973,4.223c-4.698,9.729-9.167-0.103-9.167-0.103s-13.21-10.849-20.688,4.663
		c-4.879,10.123-6.583,14.245-5.867,19.315c-6.273-9.424-10.03-21.677-9.88-35.088c0.04-3.533,0.362-6.973,0.907-10.303
		c2.901-3.517,6.133-7.857,8.431-8.485c4.288-1.174,5.594-8.497,7.468-12.14c0.156-0.245,0.272-0.471,0.405-0.707
		c1.777-2.792,4.082-2.125,14.36-7.684c10.847-5.873,9.964-13.031,9.927-13.311c-0.053-0.001-0.102,0.008-0.148,0.008l-2.559,0.585
		c0.789-0.338,1.615-0.582,2.559-0.585l0.146-0.035c0,0,0.004,0.023,0.002,0.027c0.139,0.001,0.268-0.024,0.402-0.022
		c0.137,0.001,0.27,0.026,0.406,0.031c0-0.004,0.004-0.027,0.004-0.027l0.15,0.039c-0.053-0.001-0.1-0.011-0.154-0.012
		c-0.045,0.28-1.084,7.416,9.629,13.531c10.928,6.234,12.781,5.032,14.576,8.72c1.793,3.688,2.926,11.035,7.197,12.305
		c2.283,0.68,5.416,5.094,8.234,8.676c0.471,3.338,0.713,6.784,0.673,10.313C250.164,152.275,245.953,164.682,239.222,174.034z"/>
</g>
</svg>
